<mxfile host="app.diagrams.net" modified="2024-06-04T12:15:36.149Z" agent="Mozilla/5.0 (Windows NT 10.0; Win64; x64) AppleWebKit/537.36 (KHTML, like Gecko) Chrome/125.0.0.0 Safari/537.36" etag="GGWGfwxGESDRmqfTCJv5" version="24.4.13" type="github">
  <diagram name="페이지-1" id="wuOQYOXAHwrKUBbW15M1">
    <mxGraphModel dx="2620" dy="965" grid="1" gridSize="10" guides="1" tooltips="1" connect="1" arrows="1" fold="1" page="1" pageScale="1" pageWidth="827" pageHeight="1169" math="0" shadow="0">
      <root>
        <mxCell id="0" />
        <mxCell id="1" parent="0" />
        <mxCell id="T4crXY9T4nFXTP57Vwed-3" value="FEED" style="swimlane;fontStyle=0;childLayout=stackLayout;horizontal=1;startSize=26;horizontalStack=0;resizeParent=1;resizeParentMax=0;resizeLast=0;collapsible=1;marginBottom=0;align=center;fontSize=14;" vertex="1" parent="1">
          <mxGeometry x="-50" y="310" width="220" height="200" as="geometry" />
        </mxCell>
        <mxCell id="T4crXY9T4nFXTP57Vwed-4" value="&lt;div style=&quot;&quot;&gt;&lt;b style=&quot;background-color: initial; font-family: &amp;quot;Pretendard Std&amp;quot;, Pretendard, &amp;quot;Pretendard JP&amp;quot;, -apple-system, blinkmacsystemfont, system-ui, roboto, &amp;quot;Helvetica Neue&amp;quot;, &amp;quot;Segoe UI&amp;quot;, &amp;quot;Apple SD Gothic Neo&amp;quot;, &amp;quot;Noto Sans KR&amp;quot;, &amp;quot;Malgun Gothic&amp;quot;, sans-serif; font-size: 15px;&quot;&gt;userId&lt;/b&gt;&lt;font face=&quot;Pretendard Std, Pretendard, Pretendard JP, -apple-system, blinkmacsystemfont, system-ui, roboto, Helvetica Neue, Segoe UI, Apple SD Gothic Neo, Noto Sans KR, Malgun Gothic, sans-serif&quot;&gt;&lt;span style=&quot;font-size: 15px;&quot;&gt;&lt;b&gt;(PK) &lt;span style=&quot;white-space: pre;&quot;&gt;&#x9;&lt;/span&gt;Long &lt;span style=&quot;white-space: pre;&quot;&gt;&#x9;&lt;/span&gt;N&amp;nbsp;&lt;/b&gt;&lt;/span&gt;&lt;/font&gt;&lt;/div&gt;&lt;div style=&quot;&quot;&gt;&lt;font face=&quot;Pretendard Std, Pretendard, Pretendard JP, -apple-system, blinkmacsystemfont, system-ui, roboto, Helvetica Neue, Segoe UI, Apple SD Gothic Neo, Noto Sans KR, Malgun Gothic, sans-serif&quot;&gt;&lt;span style=&quot;font-size: 15px;&quot;&gt;&lt;b&gt;feedId(PK)&amp;nbsp;&lt;span style=&quot;white-space: pre;&quot;&gt;&#x9;&lt;/span&gt;&lt;/b&gt;&lt;/span&gt;&lt;/font&gt;&lt;b style=&quot;font-family: &amp;quot;Pretendard Std&amp;quot;, Pretendard, &amp;quot;Pretendard JP&amp;quot;, -apple-system, blinkmacsystemfont, system-ui, roboto, &amp;quot;Helvetica Neue&amp;quot;, &amp;quot;Segoe UI&amp;quot;, &amp;quot;Apple SD Gothic Neo&amp;quot;, &amp;quot;Noto Sans KR&amp;quot;, &amp;quot;Malgun Gothic&amp;quot;, sans-serif; font-size: 15px;&quot;&gt;Long&lt;/b&gt;&lt;font face=&quot;Pretendard Std, Pretendard, Pretendard JP, -apple-system, blinkmacsystemfont, system-ui, roboto, Helvetica Neue, Segoe UI, Apple SD Gothic Neo, Noto Sans KR, Malgun Gothic, sans-serif&quot;&gt;&lt;span style=&quot;font-size: 15px;&quot;&gt;&lt;b&gt;&amp;nbsp;&lt;span style=&quot;white-space: pre;&quot;&gt;&#x9;&lt;/span&gt;N&amp;nbsp;&lt;/b&gt;&lt;/span&gt;&lt;/font&gt;&lt;/div&gt;&lt;div style=&quot;&quot;&gt;&lt;font face=&quot;Pretendard Std, Pretendard, Pretendard JP, -apple-system, blinkmacsystemfont, system-ui, roboto, Helvetica Neue, Segoe UI, Apple SD Gothic Neo, Noto Sans KR, Malgun Gothic, sans-serif&quot;&gt;&lt;span style=&quot;font-size: 15px;&quot;&gt;&lt;b&gt;user_id &lt;span style=&quot;white-space: pre;&quot;&gt;&#x9;&lt;/span&gt;User &lt;span style=&quot;white-space: pre;&quot;&gt;&#x9;&lt;/span&gt;&lt;span style=&quot;white-space: pre;&quot;&gt;&#x9;&lt;/span&gt;N&amp;nbsp;&lt;/b&gt;&lt;/span&gt;&lt;/font&gt;&lt;/div&gt;&lt;div style=&quot;&quot;&gt;&lt;font face=&quot;Pretendard Std, Pretendard, Pretendard JP, -apple-system, blinkmacsystemfont, system-ui, roboto, Helvetica Neue, Segoe UI, Apple SD Gothic Neo, Noto Sans KR, Malgun Gothic, sans-serif&quot;&gt;&lt;span style=&quot;font-size: 15px;&quot;&gt;&lt;b&gt;schedule_id Schedule&amp;nbsp; &amp;nbsp;N CreatedAt LocalDateTime N&lt;/b&gt;&lt;/span&gt;&lt;/font&gt;&lt;br&gt;&lt;/div&gt;" style="text;strokeColor=none;fillColor=none;spacingLeft=4;spacingRight=4;overflow=hidden;rotatable=0;points=[[0,0.5],[1,0.5]];portConstraint=eastwest;fontSize=12;whiteSpace=wrap;html=1;" vertex="1" parent="T4crXY9T4nFXTP57Vwed-3">
          <mxGeometry y="26" width="220" height="174" as="geometry" />
        </mxCell>
        <mxCell id="T4crXY9T4nFXTP57Vwed-5" value="USER" style="swimlane;fontStyle=0;childLayout=stackLayout;horizontal=1;startSize=26;horizontalStack=0;resizeParent=1;resizeParentMax=0;resizeLast=0;collapsible=1;marginBottom=0;align=center;fontSize=14;" vertex="1" parent="1">
          <mxGeometry x="270" y="336" width="220" height="200" as="geometry" />
        </mxCell>
        <mxCell id="T4crXY9T4nFXTP57Vwed-6" value="&lt;div style=&quot;&quot;&gt;&lt;font face=&quot;Pretendard Std, Pretendard, Pretendard JP, -apple-system, blinkmacsystemfont, system-ui, roboto, Helvetica Neue, Segoe UI, Apple SD Gothic Neo, Noto Sans KR, Malgun Gothic, sans-serif&quot;&gt;&lt;span style=&quot;font-size: 15px;&quot;&gt;&lt;b&gt;userId(PK) &lt;span style=&quot;white-space: pre;&quot;&gt;&#x9;&lt;/span&gt;Long &lt;span style=&quot;white-space: pre;&quot;&gt;&#x9;&lt;/span&gt;N Nickname&amp;nbsp; String &lt;span style=&quot;white-space: pre;&quot;&gt;&#x9;&lt;/span&gt;N username&amp;nbsp; &amp;nbsp;User &lt;span style=&quot;white-space: pre;&quot;&gt;&#x9;&lt;/span&gt;&lt;span style=&quot;white-space: pre;&quot;&gt;&#x9;&lt;/span&gt;N&amp;nbsp;&lt;/b&gt;&lt;/span&gt;&lt;/font&gt;&lt;/div&gt;&lt;div style=&quot;&quot;&gt;&lt;font face=&quot;Pretendard Std, Pretendard, Pretendard JP, -apple-system, blinkmacsystemfont, system-ui, roboto, Helvetica Neue, Segoe UI, Apple SD Gothic Neo, Noto Sans KR, Malgun Gothic, sans-serif&quot;&gt;&lt;span style=&quot;font-size: 15px;&quot;&gt;&lt;b&gt;Password&amp;nbsp; String &lt;span style=&quot;white-space: pre;&quot;&gt;&#x9;&lt;/span&gt;N&lt;/b&gt;&lt;/span&gt;&lt;/font&gt;&lt;b style=&quot;font-size: 15px; font-family: &amp;quot;Pretendard Std&amp;quot;, Pretendard, &amp;quot;Pretendard JP&amp;quot;, -apple-system, blinkmacsystemfont, system-ui, roboto, &amp;quot;Helvetica Neue&amp;quot;, &amp;quot;Segoe UI&amp;quot;, &amp;quot;Apple SD Gothic Neo&amp;quot;, &amp;quot;Noto Sans KR&amp;quot;, &amp;quot;Malgun Gothic&amp;quot;, sans-serif; background-color: initial;&quot;&gt;&amp;nbsp;&lt;/b&gt;&lt;/div&gt;&lt;div style=&quot;&quot;&gt;&lt;font face=&quot;Pretendard Std, Pretendard, Pretendard JP, -apple-system, blinkmacsystemfont, system-ui, roboto, Helvetica Neue, Segoe UI, Apple SD Gothic Neo, Noto Sans KR, Malgun Gothic, sans-serif&quot;&gt;&lt;span style=&quot;font-size: 15px;&quot;&gt;&lt;b&gt;Role UserRoleEnum&lt;span style=&quot;white-space: pre;&quot;&gt;&#x9;&lt;/span&gt;N&lt;/b&gt;&lt;/span&gt;&lt;/font&gt;&lt;/div&gt;&lt;div style=&quot;&quot;&gt;&lt;font face=&quot;Pretendard Std, Pretendard, Pretendard JP, -apple-system, blinkmacsystemfont, system-ui, roboto, Helvetica Neue, Segoe UI, Apple SD Gothic Neo, Noto Sans KR, Malgun Gothic, sans-serif&quot;&gt;&lt;span style=&quot;font-size: 15px;&quot;&gt;&lt;b&gt;CreatedAt LocalDateTime N&lt;br&gt;&lt;/b&gt;&lt;/span&gt;&lt;/font&gt;&lt;br&gt;&lt;/div&gt;" style="text;strokeColor=none;fillColor=none;spacingLeft=4;spacingRight=4;overflow=hidden;rotatable=0;points=[[0,0.5],[1,0.5]];portConstraint=eastwest;fontSize=12;whiteSpace=wrap;html=1;" vertex="1" parent="T4crXY9T4nFXTP57Vwed-5">
          <mxGeometry y="26" width="220" height="174" as="geometry" />
        </mxCell>
        <mxCell id="T4crXY9T4nFXTP57Vwed-7" value="" style="edgeStyle=entityRelationEdgeStyle;fontSize=12;html=1;endArrow=ERzeroToMany;startArrow=ERmandOne;rounded=0;startSize=8;endSize=8;curved=1;" edge="1" parent="1">
          <mxGeometry width="100" height="100" relative="1" as="geometry">
            <mxPoint x="270" y="420" as="sourcePoint" />
            <mxPoint x="170" y="420" as="targetPoint" />
            <Array as="points">
              <mxPoint x="564" y="393" />
            </Array>
          </mxGeometry>
        </mxCell>
        <mxCell id="T4crXY9T4nFXTP57Vwed-8" value="" style="edgeStyle=entityRelationEdgeStyle;fontSize=12;html=1;endArrow=ERzeroToMany;startArrow=ERmandOne;rounded=0;startSize=8;endSize=8;curved=1;entryX=-0.014;entryY=0.466;entryDx=0;entryDy=0;entryPerimeter=0;" edge="1" parent="1" target="T4crXY9T4nFXTP57Vwed-4">
          <mxGeometry width="100" height="100" relative="1" as="geometry">
            <mxPoint x="-180" y="417" as="sourcePoint" />
            <mxPoint x="210" y="370" as="targetPoint" />
          </mxGeometry>
        </mxCell>
      </root>
    </mxGraphModel>
  </diagram>
</mxfile>
